<svg width="1080" height="1080" viewBox="0 0 1080 1080" fill="none" xmlns="http://www.w3.org/2000/svg">
<g clip-path="url(#clip0)">
<rect width="1080" height="1080" fill="white"/>
<path d="M581.043 405.786C588.861 396.537 592.77 385.51 592.77 372.704C592.77 359.899 588.861 348.516 581.043 338.556C573.936 327.884 563.275 322.549 549.061 322.549H459.513V419.659H549.061C563.275 419.659 573.936 415.034 581.043 405.786ZM459.513 597.871V702.451H558.656C575.002 702.451 587.084 697.116 594.902 686.444C603.43 675.061 607.694 662.611 607.694 649.094V648.027C607.694 634.51 603.075 622.771 593.836 612.811C585.307 602.851 573.581 597.871 558.656 597.871H459.513ZM586.373 886H221.783C213.966 886 207.214 883.154 201.528 877.463C195.843 871.771 193 865.013 193 857.187V167.813C193 159.987 195.843 153.229 201.528 147.537C207.214 141.846 213.966 139 221.783 139H575.713C676.632 139 750.901 157.497 798.518 194.491C846.845 230.774 871.009 285.91 871.009 359.899V363.1C871.009 393.691 862.125 421.081 844.358 445.27C826.59 468.747 807.046 485.821 785.725 496.493C814.153 507.876 837.962 528.151 857.151 557.32C877.05 585.777 887 617.08 887 651.229C887 807.743 786.791 886 586.373 886Z" fill="url(#paint0_linear)"/>
<mask id="mask0" mask-type="alpha" maskUnits="userSpaceOnUse" x="-464" y="196" width="1708" height="1049">
<path d="M-411.966 814.734C60.7144 430.843 1043.03 -144.25 1190.87 626.512C1338.71 1397.27 183.911 1073.14 -411.966 814.734Z" fill="black" stroke="black"/>
</mask>
<g mask="url(#mask0)">
<path d="M581.043 405.786C588.861 396.537 592.77 385.51 592.77 372.704C592.77 359.899 588.861 348.516 581.043 338.556C573.936 327.884 563.275 322.549 549.061 322.549H459.513V419.659H549.061C563.275 419.659 573.936 415.034 581.043 405.786ZM459.513 597.871V702.451H558.656C575.002 702.451 587.084 697.116 594.902 686.444C603.43 675.061 607.694 662.611 607.694 649.094V648.027C607.694 634.51 603.075 622.771 593.836 612.811C585.307 602.851 573.581 597.871 558.656 597.871H459.513ZM586.373 886H221.783C213.966 886 207.214 883.154 201.528 877.463C195.843 871.771 193 865.013 193 857.187V167.813C193 159.987 195.843 153.229 201.528 147.537C207.214 141.846 213.966 139 221.783 139H575.713C676.632 139 750.901 157.497 798.518 194.491C846.845 230.774 871.009 285.91 871.009 359.899V363.1C871.009 393.691 862.125 421.081 844.358 445.27C826.59 468.747 807.046 485.821 785.725 496.493C814.153 507.876 837.962 528.151 857.151 557.32C877.05 585.777 887 617.08 887 651.229C887 807.743 786.791 886 586.373 886Z" fill="url(#paint1_linear)"/>
</g>
</g>
<defs>
<linearGradient id="paint0_linear" x1="540" y1="139" x2="540" y2="886" gradientUnits="userSpaceOnUse">
<stop stop-color="#E56B6F"/>
<stop offset="0.9999" stop-color="#EAAC8B"/>
<stop offset="1" stop-color="#E56B6F" stop-opacity="0"/>
</linearGradient>
<linearGradient id="paint1_linear" x1="540" y1="139" x2="540" y2="886" gradientUnits="userSpaceOnUse">
<stop stop-color="#5C297D"/>
<stop offset="1" stop-color="#B56576"/>
</linearGradient>
<clipPath id="clip0">
<rect width="1080" height="1080" fill="white"/>
</clipPath>
</defs>
</svg>
